<svg width="64" height="64" viewBox="0 0 64 64" fill="none" xmlns="http://www.w3.org/2000/svg">
  <!-- Fox head logo for GitStandup — dark UI optimized -->
  <!-- Ears -->
  <path d="M14 20L20 4L28 18Z" fill="#f97316"/>
  <path d="M50 20L44 4L36 18Z" fill="#f97316"/>
  <!-- Inner ears -->
  <path d="M17 18L20 9L24 17Z" fill="#1a1a2e"/>
  <path d="M47 18L44 9L40 17Z" fill="#1a1a2e"/>
  <!-- Head -->
  <path d="M32 12C20 12 12 22 12 32C12 42 20 52 32 52C44 52 52 42 52 32C52 22 44 12 32 12Z" fill="#f97316"/>
  <!-- White face -->
  <path d="M32 20C24 20 18 26 18 34C18 40 24 46 32 46C40 46 46 40 46 34C46 26 40 20 32 20Z" fill="#fef3c7"/>
  <!-- Eyes -->
  <ellipse cx="25" cy="30" rx="3" ry="4" fill="#1a1a2e"/>
  <ellipse cx="39" cy="30" rx="3" ry="4" fill="#1a1a2e"/>
  <!-- Eye shine -->
  <circle cx="26" cy="29" r="1" fill="#ffffff"/>
  <circle cx="40" cy="29" r="1" fill="#ffffff"/>
  <!-- Nose -->
  <ellipse cx="32" cy="38" rx="3" ry="2.5" fill="#1a1a2e"/>
  <!-- Mouth -->
  <path d="M32 41L32 44M32 44L28 46M32 44L36 46" stroke="#1a1a2e" stroke-width="1.5" stroke-linecap="round"/>
</svg>
